<svg xmlns="http://www.w3.org/2000/svg" id="bc4162a5-fb2d-42b9-ba15-1bd64cded21e" data-name="Layer 1" viewBox="0 0 743.59 217.69"><polygon points="44.38 51.01 44.38 139.42 144.75 139.41 144.75 81.24 125.34 81.24 125.34 119.99 63.8 120.03 63.8 70.43 169.71 70.43 169.71 158.05 19.42 158.09 19.42 19.42 125.34 19.42 125.34 40.41 144.75 40.41 144.75 0 0 0 0 177.48 189.13 177.48 189.13 51.01 44.38 51.01" style="fill:#f37021"></polygon><path d="M738.58,83.64a5,5,0,0,1,0,10,5,5,0,0,1,0-10Zm2.85,7.88a4.12,4.12,0,0,0,0-5.77,4,4,0,0,0-5.7,0,4.12,4.12,0,0,0,0,5.77,3.94,3.94,0,0,0,5.7,0Zm-1.49-2.09,1.35,1.87h-2l-1.17-1.62h-.24V91.3h-1.72V86h2.67a1.86,1.86,0,0,1,2,1.89A1.59,1.59,0,0,1,739.94,89.43Zm-2.1-2v.83h.88a.39.39,0,0,0,.39-.41.38.38,0,0,0-.39-.42Z" style="fill:#231f20"></path><path d="M267.37,177.5a40.88,40.88,0,0,1-15.59-3.08,38.49,38.49,0,0,1-13.36-9.17,45.49,45.49,0,0,1-9.34-14.9A54.43,54.43,0,0,1,225.57,130v-.34a54.42,54.42,0,0,1,3.51-20.3,46.48,46.48,0,0,1,9.25-14.91,37.71,37.71,0,0,1,13.28-9.16,41.14,41.14,0,0,1,15.76-3.09q10.45,0,17.22,4.11A46,46,0,0,1,296,96V50.72h26V175.79H296V162.6a41.36,41.36,0,0,1-11.56,10.71Q277.66,177.5,267.37,177.5Zm6.68-22.1a21,21,0,0,0,8.66-1.8,20.7,20.7,0,0,0,7-5.14,25.47,25.47,0,0,0,4.8-8.05,28.84,28.84,0,0,0,1.8-10.37v-.34a28.79,28.79,0,0,0-1.8-10.36,25.64,25.64,0,0,0-4.8-8.06,21.34,21.34,0,0,0-24.33-5.14,21.79,21.79,0,0,0-7.11,5.14,24.94,24.94,0,0,0-4.88,8,28.63,28.63,0,0,0-1.8,10.45V130a28.84,28.84,0,0,0,1.8,10.37,24.57,24.57,0,0,0,4.88,8.05,21.64,21.64,0,0,0,7.11,5.14A20.94,20.94,0,0,0,274.05,155.4Z" style="fill:#231f20"></path><path d="M599.5,176.81a51.12,51.12,0,0,1-18.62-3.34A43,43,0,0,1,566,164a44,44,0,0,1-9.77-14.61,48.42,48.42,0,0,1-3.51-18.78v-.34a50.05,50.05,0,0,1,3.26-18,45.74,45.74,0,0,1,9.1-14.86A42.41,42.41,0,0,1,597,83.64q11.19,0,19.37,4A39.33,39.33,0,0,1,630,98.41a44.9,44.9,0,0,1,8,15.53,64.41,64.41,0,0,1,2.59,18.28c0,1,0,2.07-.09,3.18s-.14,2.28-.25,3.5H578q1.83,8.68,7.59,13.11a22.77,22.77,0,0,0,14.28,4.43,28.48,28.48,0,0,0,11.36-2.17,38.69,38.69,0,0,0,10.35-7l14.52,12.86a44.87,44.87,0,0,1-15.36,12.27Q611.69,176.81,599.5,176.81ZM615.86,123q-1.17-8.52-6-13.77T597,104q-8,0-12.94,5.17T577.62,123Z" style="fill:#231f20"></path><path d="M696.58,176.81A51.1,51.1,0,0,1,678,173.47,43,43,0,0,1,663.11,164a44,44,0,0,1-9.77-14.61,48.42,48.42,0,0,1-3.51-18.78v-.34a50.05,50.05,0,0,1,3.26-18,45.74,45.74,0,0,1,9.1-14.86,42.41,42.41,0,0,1,31.89-13.69q11.19,0,19.37,4a39.42,39.42,0,0,1,13.61,10.77,44.88,44.88,0,0,1,8,15.53,64.05,64.05,0,0,1,2.59,18.28c0,1,0,2.07-.08,3.18s-.14,2.28-.25,3.5H675q1.85,8.68,7.6,13.11a22.75,22.75,0,0,0,14.28,4.43,28.4,28.4,0,0,0,11.35-2.17,38.88,38.88,0,0,0,10.36-7l14.52,12.86a45,45,0,0,1-15.36,12.27Q708.78,176.81,696.58,176.81ZM713,123q-1.17-8.52-6-13.77T694.08,104q-8,0-12.94,5.17T674.71,123Z" style="fill:#231f20"></path><polygon points="565.79 217.69 500.93 149.54 564.52 82.67 529.54 82.67 466.37 149.1 466.37 82.67 440.14 82.67 440.14 179.1 466.37 179.1 466.37 149.99 530.81 217.69 565.79 217.69" style="fill:#f37021"></polygon><path d="M416.24,96.43A48.11,48.11,0,0,0,382,82.16h-.26a48.93,48.93,0,0,0-34.78,14.33,48.07,48.07,0,0,0-14.26,34.21,59.16,59.16,0,0,0,.5,7.23H360.6a17.29,17.29,0,0,1-1.06-7.27,21.59,21.59,0,0,1,6.3-15.49,22.39,22.39,0,0,1,32.17.07,21.41,21.41,0,0,1,6.14,15.5,22.33,22.33,0,0,1-22.23,22.89,23.7,23.7,0,0,1-4.59-.58v26.67c1.26.09,2.49.14,3.7.14h.91a47.9,47.9,0,0,0,34.15-14.22,48.8,48.8,0,0,0,14.29-34.94A47.93,47.93,0,0,0,416.24,96.43Z" style="fill:#f37021"></path></svg>